<?xml version="1.0" encoding="utf-8"?>
<!DOCTYPE svg PUBLIC "-//W3C//DTD SVG 20010904//EN" "http://www.w3.org/TR/2001/REC-SVG-20010904/DTD/svg10.dtd">
<svg version="1.0" xmlns="http://www.w3.org/2000/svg" width="612px" height="612px" viewBox="0 0 612 612" preserveAspectRatio="xMidYMid meet">
 <g fill="#5e7d6c">
  <path d="M302.5 552.9 c-3.8 -0.4 -18.2 -3.8 -32 -7.7 -13.7 -3.9 -29.9 -8.4 -36 -10.1 -20.2 -5.7 -46 -13.8 -49.5 -15.6 -8 -4 -33 -26 -35.4 -30.9 -1.6 -3.5 -2.2 -12.2 -0.8 -14.2 0.4 -0.6 1.4 -1.5 2.4 -2 1.3 -0.7 -0.6 -2.6 -10.5 -10 -15.3 -11.5 -32.6 -26.9 -33.8 -30.1 -0.5 -1.3 -0.9 -5.2 -0.9 -8.6 0 -8 1.6 -10.5 7.1 -10.9 l4 -0.3 -6.1 -4.4 c-8.6 -6.3 -12 -11.8 -12 -19.5 0 -9.2 1.4 -10.6 10.2 -10.6 6.3 0 6.9 -0.2 6.2 -1.7 -0.4 -1 -0.9 -4.5 -1.1 -7.8 -0.5 -8.4 1.8 -12.1 8.3 -13.1 8.9 -1.3 21.5 3 35.5 12.2 9.7 6.3 33 18.2 44.7 22.9 27 10.6 44.9 13.8 85.7 15 25.6 0.7 48.2 2.2 61.4 4.1 5.8 0.8 12.4 1.4 14.8 1.4 4.6 0 11.2 -2.3 12.5 -4.3 3.7 -5.8 -6.4 -15.3 -24.3 -23 -21.6 -9.2 -42.4 -12.8 -75.9 -13.1 -24.3 -0.2 -27.3 -0.8 -32.5 -6 -2 -2 -2.5 -3.5 -2.5 -7.8 0 -13.5 11.4 -20.9 36.5 -23.8 19.7 -2.2 59.8 -0.4 79.3 3.6 22.2 4.5 47.2 13.3 70.7 24.9 10.5 5.1 20.2 9.6 21.8 9.9 3 0.7 7.2 -1 10 -4.1 1.6 -1.9 1.6 -2.1 -1.2 -6 -5.6 -7.7 -34.3 -24.6 -56.6 -33.3 -25.5 -9.9 -62.5 -18 -82.6 -18 l-5.9 0 0 -4 0 -4 11.8 0 c18.2 0 53.1 5 66.8 9.5 18.6 6.2 48.5 20.4 72.1 34.2 l4.2 2.4 2 -2 c2.5 -2.5 2.6 -4.2 0.7 -7.9 -3.2 -6 -7.5 -9.1 -33.6 -24.3 -44.9 -26 -75.8 -36.3 -118.2 -39.4 l-8.8 -0.7 0 -3.5 0 -3.5 22.3 0.5 c29.2 0.6 42.4 3.4 65.2 13.6 9.9 4.4 53.5 26.3 59.2 29.7 3.8 2.3 4.2 2.3 5.7 0.8 4.3 -4.3 -3.4 -12.6 -25.9 -28 -17.2 -11.7 -53.9 -31.4 -66.7 -35.8 -19.3 -6.6 -40.4 -10.2 -66 -11.3 l-15.8 -0.6 0 -3.3 0 -3.2 9.6 -0.7 c15.9 -1.2 44.5 0 55.5 2.4 18.7 4 40.3 12.6 54.3 21.6 8.7 5.6 12.1 4.1 7.6 -3.2 -3.1 -5.2 -24.1 -19.8 -40 -27.8 -11.9 -6.1 -28.2 -12.4 -37.4 -14.7 -5.8 -1.4 -9.6 -2.8 -9.6 -3.5 0 -0.7 0.8 -1.3 1.8 -1.4 3.8 -0.1 -2.3 -1.8 -6.8 -1.8 -3.1 0 -3.9 0.3 -2.6 0.8 3.5 1.3 0.1 2.1 -6.3 1.5 l-6.1 -0.7 0 -3.3 c0 -1.9 0.2 -3.4 0.5 -3.4 3.3 0 23 -3.6 30 -5.5 26.6 -7.2 173.1 -44.5 174.6 -44.5 1.1 0 1.9 0.7 1.9 1.5 0 0.8 0.3 1.5 0.8 1.5 1.9 0 40.4 -10.3 45.2 -12.1 12.7 -4.7 20.3 -1.8 20.1 7.7 0 2.7 -6.8 77.7 -15 166.6 -10.9 117.8 -15.4 162.7 -16.6 165.5 -3.1 7.4 -10.8 13.4 -19 14.8 -2.2 0.4 -8.9 2.2 -15 4 -13 4 -202.1 58 -205 58.7 -1.1 0.2 -5.1 0.1 -9 -0.3z"/>
 </g>
 <g fill="#b9d4c5">
  <path d="M143 508.5 c-78.9 -22.8 -73.4 -21 -77.6 -24.7 -4.6 -4 -6.4 -8.6 -6.4 -16.2 -0.1 -3.3 -7 -77.4 -15.4 -164.6 -10.3 -106.7 -15 -159.6 -14.5 -162 1.5 -6.6 8.1 -8.8 16.6 -5.5 3.8 1.4 55.6 14.6 57 14.4 0.4 0 -0.8 -0.6 -2.7 -1.4 -2.8 -1 -3.2 -1.4 -1.7 -2 2 -0.9 0.8 -1.1 107 25.7 67.3 17 91.6 22.6 99.5 22.8 0.1 0 0.2 0.7 0.2 1.5 0 0.8 0.5 1.5 1 1.5 0.6 0 1 -0.7 1 -1.5 0 -1.7 3.2 -1.8 11.5 -0.5 4.5 0.7 4.7 0.8 1.5 1 -1.9 0.1 -4.6 0.6 -6 1 -2.1 0.7 -1.9 0.8 1.8 0.9 2.3 0.1 4.2 0.5 4.2 1 0 0.5 3.5 1.2 7.8 1.6 17.7 1.4 50.4 14.9 73.2 30 13.2 8.8 18.5 13.8 19.9 18.9 2.8 10.5 -3.8 12.6 -15.5 5.1 -14 -9 -35.8 -17.6 -54.3 -21.6 -11.5 -2.4 -35.3 -3.5 -49.6 -2.3 l-10 0.8 14.5 0.7 c26.9 1.3 47.2 4.7 66.5 11.1 13.7 4.6 49.8 23.8 68 36.2 11.4 7.8 22.3 16.6 24.6 19.7 2.9 4.2 3.7 11.9 1.4 14.2 -2.3 2.4 -7.3 2.1 -12 -0.8 -5.2 -3.2 -48.6 -25 -59 -29.6 -22.2 -10 -36.3 -13 -62.5 -13.5 -20 -0.3 -19.4 0.1 3.9 2.5 33.2 3.5 64 14.7 104.1 38 31.7 18.4 35 21.4 35 31.6 0 8.8 -6.1 10.9 -15.9 5.3 -9.7 -5.6 -13.3 -7.6 -24.1 -13.2 -12.3 -6.3 -36.2 -16.7 -46.4 -20.1 -7 -2.3 -30 -6.5 -46.6 -8.5 -10.9 -1.3 -26 -1.3 -26 0 0 0.6 2.6 1 5.9 1 8.2 0 27.2 2.6 40.6 5.5 32.6 7.1 60.2 18.4 85.4 35.1 15.8 10.3 19.9 18 13 23.8 -7.1 6 -12.5 5 -36.4 -6.9 -23.3 -11.5 -48.3 -20.3 -70.7 -24.9 -12 -2.5 -38 -4.7 -52.8 -4.5 -29 0.3 -43.4 3.7 -52.2 12.3 -7 6.8 -6 13.4 2.7 17.6 4.3 2.1 6.2 2.3 27.8 2.6 33.9 0.4 53.9 3.9 75.6 13.1 19.7 8.5 28.8 18.3 25.1 27.3 -2.5 5.9 -13.3 7.4 -34.1 4.6 -16 -2.2 -50.7 -4.3 -76.9 -4.7 -23.7 -0.4 -46.5 -5.1 -70.2 -14.4 -11.7 -4.7 -35 -16.6 -44.7 -22.9 -12.6 -8.3 -25.3 -13.1 -31.3 -11.9 -3.3 0.7 -6.8 5.3 -6.8 9.1 0 5.8 7.4 13.6 21.6 22.7 4.9 3.2 11.2 7.2 13.9 9 14 9 37.6 19.9 56 25.8 13.8 4.4 23.9 6.4 38.7 7.7 11.9 1 14.8 1.6 14.8 3 0 1.6 -2.9 1.7 -16.4 0.9 -37.1 -2.5 -73.6 -16.5 -106.1 -40.9 -13.5 -10.2 -21.1 -14.1 -28.5 -14.7 -5.2 -0.5 -5.9 -0.3 -7.4 1.8 -4 5.8 0.2 14.6 10.5 22 3.4 2.4 10 7.3 14.8 10.8 39.9 29.9 86.6 49.8 124.6 53.1 12.2 1.1 15.5 2.2 15.5 5.1 0 2.1 -0.3 2.1 -9 1.5 -29.8 -2.1 -51.6 -8.5 -84.5 -24.6 -18.3 -9 -34.6 -18.7 -49 -29.2 -5.8 -4.3 -8.8 -5.8 -11.2 -5.8 -4.6 0 -6.7 3.4 -6 9.7 0.5 4.4 1.2 5.4 7.9 11.6 18.6 17.4 46.1 37.2 66.8 48 28.1 14.7 52.7 22.1 79.5 23.6 14 0.9 19.1 2 16.5 3.6 -2.7 1.7 -27.3 1.8 -36.7 0.1 -22.8 -4 -51 -16.1 -76.9 -33.2 -7.5 -5 -8.4 -5.3 -11.2 -4.3 -6.9 2.4 -5.4 9.1 4.2 18.3 13.4 12.9 24.9 21.4 37.2 27.6 6.4 3.3 11.3 6 10.8 5.9 -0.5 0 -29.5 -8.3 -64.4 -18.4z"/>
 </g>
 <g fill="#dfa883">
  <path d="M290.7 196.8 c-5.9 -0.8 -163 -40.2 -182.5 -45.9 l-10.9 -3.1 -0.7 -8.2 c-0.3 -4.4 -0.6 -12.7 -0.6 -18.3 l0 -10.2 5.5 2.4 c5.6 2.5 27.8 9.2 39.5 11.9 3.6 0.9 9.5 2.4 13.3 3.5 6.6 1.9 6.7 1.9 6.7 0 0 -1.2 0.7 -1.9 1.9 -1.9 3.6 0 59.4 14.2 69.5 17.7 13.4 4.6 31.1 13.1 41.1 19.7 15.3 10.2 30.5 25.6 30.5 30.8 0 2.7 -0.2 2.9 -3.7 2.6 -2.1 -0.1 -6.4 -0.6 -9.6 -1z"/>
  <path d="M307 194.2 c0 -4.1 3.1 -8.2 6.2 -8.2 0.9 0 1.9 -0.8 2.2 -1.7 1.7 -4.8 6.1 -10.3 8.2 -10.3 0.8 0 2.1 -1.1 3 -2.5 0.9 -1.4 2.2 -2.5 2.9 -2.5 0.7 0 1.5 -0.7 1.9 -1.5 0.3 -0.8 1.2 -1.5 2.1 -1.5 0.8 0 1.5 -0.4 1.5 -1 0 -0.5 0.7 -1 1.5 -1 0.8 0 1.5 -0.4 1.5 -1 0 -0.5 1.1 -1.2 2.5 -1.6 1.4 -0.3 2.5 -1 2.5 -1.4 0 -0.5 1 -1.2 2.3 -1.6 1.2 -0.4 2.4 -1 2.7 -1.4 0.7 -1.1 9.6 -5.4 19.3 -9.4 10.4 -4.3 74.9 -20.6 81.6 -20.6 1.4 0 2.1 0.6 2.1 2 0 1.1 0.5 2 1.2 2 2.9 0 30.2 -7.5 45.6 -12.5 9.3 -3 17.2 -5.5 17.6 -5.5 0.3 0 0.6 7.9 0.6 17.5 0 9.6 -0.2 17.5 -0.4 17.5 -0.5 0 -162.5 41.6 -173.1 44.5 -9.2 2.5 -27.1 5.5 -32.5 5.5 -2.8 0 -3 -0.2 -3 -3.8z"/>
 </g>
 <g fill="#ffd3b6">
  <path d="M300.2 195.1 c-1.8 -4.2 -16.5 -18.3 -26.2 -25.2 -10.1 -7.3 -30.6 -17.5 -44.6 -22.3 -5.6 -1.9 -23.2 -6.7 -39.2 -10.6 -25.9 -6.4 -29.1 -7.4 -29.6 -9.3 -0.9 -3.6 -0.7 -21.7 0.3 -21.7 5.2 0 66.6 15.6 83.1 21.1 30.7 10.2 50.4 29.6 58.5 57.5 1.4 4.7 2.5 9.7 2.5 11 0 3.4 -3.2 3.1 -4.8 -0.5z"/>
  <path d="M307 194.8 c0 -4.7 3.6 -17.2 7 -24.3 9.5 -19.9 30.9 -37.4 56.5 -46.2 13.5 -4.6 74.7 -19.3 80.5 -19.3 1.1 0 1.4 16.6 0.4 21.8 -0.6 2.8 -1.1 3.2 -6.3 4.2 -18.9 3.8 -67.2 16.4 -74.7 19.5 -9.8 4.1 -18.7 8.4 -19.4 9.5 -0.3 0.4 -1.5 1 -2.7 1.4 -1.3 0.4 -2.3 1.1 -2.3 1.6 0 0.4 -1.1 1.1 -2.5 1.4 -1.4 0.4 -2.5 1.1 -2.5 1.6 0 0.6 -0.7 1 -1.5 1 -0.8 0 -1.5 0.5 -1.5 1 0 0.6 -0.7 1 -1.5 1 -0.9 0 -1.8 0.7 -2.1 1.5 -0.4 0.8 -1.2 1.5 -1.9 1.5 -0.7 0 -2 1.1 -2.9 2.5 -0.9 1.4 -2.2 2.5 -2.9 2.5 -1.4 0 -6.4 4.8 -5.9 5.6 0.5 0.8 -4.2 6.4 -5.3 6.4 -1.3 0 -6.7 5.4 -6.1 6.1 0.2 0.2 -0.2 1 -1 1.7 -1.2 1.1 -1.4 0.8 -1.4 -2z"/>
 </g>
</svg>